0.11m3min_grf.mot
version=1
nRows=20
nColumns 19
inDegrees=yes
endheader
time	1_ground_force_vx	1_ground_force_vy	1_ground_force_vz	1_ground_force_px	1_ground_force_py	1_ground_force_pz	1_ground_torque_x	1_ground_torque_y	1_ground_torque_z	2_ground_force_vx	2_ground_force_vy	2_ground_force_vz	2_ground_force_px	2_ground_force_py	2_ground_force_pz	2_ground_torque_x	2_ground_torque_y	2_ground_torque_z
            2.502500	            0.547178	            4.870818	           -0.805902	           -0.233013	            0.005581	           -0.255695	            0.501608	           -0.480497	            0.057574	            0.231289	            0.561157	           -2.203749	           -0.232311	            0.006130	           -0.833667	           -0.319706	            0.075141	           -0.188096
            2.503000	            0.777825	            4.507972	           -0.257746	           -0.233013	            0.005581	           -0.255695	            0.478500	           -0.258777	            0.124763	            0.273343	            1.851536	           -2.527667	           -0.232311	            0.006130	           -0.833667	           -0.244675	            0.094654	           -0.282312
            2.503500	            0.502066	            5.229965	           -0.483251	           -0.233013	            0.005581	           -0.255695	            0.468831	           -0.036830	            0.057590	            0.606650	            0.379199	           -2.439206	           -0.232311	            0.006130	           -0.833667	           -0.244411	            0.028283	           -0.225997
            2.504000	           -0.092410	            3.965827	            0.017233	           -0.233013	            0.005581	           -0.255695	            0.410650	            0.055095	            0.089157	            0.508983	            1.483583	           -2.388296	           -0.232311	            0.006130	           -0.833667	           -0.225507	           -0.000142	           -0.188406
            2.504500	           -0.184488	            4.867531	           -0.070387	           -0.233013	            0.005581	           -0.255695	            0.470496	           -0.065425	            0.159742	            0.511642	            0.746990	           -2.390924	           -0.232311	            0.006130	           -0.833667	           -0.281785	           -0.028502	           -0.245034
            2.505000	           -0.001050	            4.507035	           -0.072388	           -0.233013	            0.005581	           -0.255695	            0.432737	           -0.323277	           -0.040217	            0.692374	            2.589317	           -2.431361	           -0.232311	            0.006130	           -0.833667	           -0.263154	            0.018695	           -0.207173
            2.505500	            0.319605	            5.228356	           -0.115948	           -0.233013	            0.005581	           -0.255695	            0.396884	           -0.462031	            0.029329	            0.276125	            1.113939	           -2.248726	           -0.232311	            0.006130	           -0.833667	           -0.187936	           -0.000006	           -0.188422
            2.506000	            0.686253	            4.507758	           -0.211662	           -0.233013	            0.005581	           -0.255695	            0.401200	           -0.443217	            0.007466	            0.277474	            0.745475	           -2.203112	           -0.232311	            0.006130	           -0.833667	           -0.319630	            0.056168	           -0.169314
            2.506500	            0.868747	            4.329100	           -0.579738	           -0.233013	            0.005581	           -0.255695	            0.529753	           -0.203114	            0.091194	            0.369139	            1.298593	           -2.295037	           -0.232311	            0.006130	           -0.833667	           -0.263342	            0.075277	           -0.169270
            2.507000	            0.594094	            5.229393	           -0.345910	           -0.233013	            0.005581	           -0.255695	            0.481642	            0.028085	            0.024150	            0.321584	            1.482907	           -2.388216	           -0.232311	            0.006130	           -0.833667	           -0.150586	            0.047797	           -0.301371
            2.507500	            0.319916	            4.146566	           -0.074730	           -0.233013	            0.005581	           -0.255695	            0.508110	            0.083434	            0.012632	            0.507592	            1.852382	           -2.527766	           -0.232311	            0.006130	           -0.833667	           -0.206720	           -0.009258	           -0.263849
            2.508000	           -0.092736	            4.507017	           -0.072160	           -0.233013	            0.005581	           -0.255695	            0.545650	           -0.120507	            0.088049	            0.648265	            1.851885	           -2.246257	           -0.232311	            0.006130	           -0.833667	           -0.169081	           -0.028027	           -0.263932
            2.508500	           -0.000547	            4.866583	            0.158438	           -0.233013	            0.005581	           -0.255695	            0.554616	           -0.407242	            0.147089	            0.371818	            0.561832	           -2.250737	           -0.232311	            0.006130	           -0.833667	           -0.169159	            0.000129	           -0.207280
            2.509000	            0.182402	            4.687140	           -0.026214	           -0.233013	            0.005581	           -0.255695	            0.487215	           -0.471397	            0.042018	            0.275460	            1.298087	           -2.248069	           -0.232311	            0.006130	           -0.833667	           -0.263102	           -0.000076	           -0.244941
            2.509500	            0.593818	            4.869451	           -0.485024	           -0.233013	            0.005581	           -0.255695	            0.525311	           -0.378541	            0.003513	            0.183754	            0.745304	           -2.250000	           -0.232311	            0.006130	           -0.833667	           -0.207027	            0.075817	           -0.263545
            2.510000	            0.640083	            5.048939	           -0.300941	           -0.233013	            0.005581	           -0.255695	            0.367394	           -0.147861	            0.100833	            0.414639	            1.667226	           -2.340671	           -0.232311	            0.006130	           -0.833667	           -0.169543	            0.104176	           -0.225760
            2.510500	            0.685714	            5.589942	           -0.344592	           -0.233013	            0.005581	           -0.255695	            0.500374	            0.055539	            0.103310	            0.368495	            1.482574	           -2.247452	           -0.232311	            0.006130	           -0.833667	           -0.244412	            0.037467	           -0.150563
            2.511000	            0.273876	            5.228151	           -0.069979	           -0.233013	            0.005581	           -0.255695	            0.507325	            0.037357	           -0.027153	            0.322954	            1.114275	           -2.295674	           -0.232311	            0.006130	           -0.833667	           -0.187909	           -0.018575	           -0.282741
            2.511500	            0.044757	            5.948776	            0.025394	           -0.233013	            0.005581	           -0.255695	            0.447087	           -0.268515	            0.131069	            0.411337	            2.587800	           -2.290458	           -0.232311	            0.006130	           -0.833667	           -0.206772	            0.009513	           -0.226081
            2.512000	           -0.000352	            5.046456	            0.250923	           -0.233013	            0.005581	           -0.255695	            0.381267	           -0.406627	           -0.002869	            0.694368	            2.036872	           -2.433333	           -0.232311	            0.006130	           -0.833667	           -0.263009	           -0.019183	           -0.188458
